<svg width="116" height="15" viewBox="0 0 116 15" fill="none" xmlns="http://www.w3.org/2000/svg">
<g clip-path="url(#clip0_3002_3098)">
<path fill-rule="evenodd" clip-rule="evenodd" d="M13.2211 2.19086H6.6824C4.1244 2.19086 2.05074 4.37506 2.05074 7.06942C2.05074 9.76378 4.1244 11.9479 6.6824 11.9479H13.2211C15.7792 11.9479 17.8528 9.76378 17.8528 7.06942C17.8528 4.37506 15.7792 2.19086 13.2211 2.19086ZM6.6824 1.04297C3.52252 1.04297 0.960938 3.7411 0.960938 7.06942C0.960938 10.3977 3.52252 13.0958 6.6824 13.0958H13.2211C16.381 13.0958 18.9426 10.3977 18.9426 7.06942C18.9426 3.7411 16.381 1.04297 13.2211 1.04297H6.6824Z" fill="#50565D"/>
<path d="M18.9428 7.06942C18.9428 10.3977 16.3813 13.0958 13.2215 13.0958C10.0616 13.0958 7.5 10.3977 7.5 7.06942C7.5 3.7411 10.0616 1.04297 13.2215 1.04297C16.3813 1.04297 18.9428 3.7411 18.9428 7.06942Z" fill="#50565D"/>
<path d="M22.1094 14.0737L26.2144 0.359375H29.4061L33.5111 14.0737H31.2688L27.5435 1.7689H28.0318L24.3518 14.0737H22.1094ZM24.397 11.1022V8.95936H31.2326V11.1022H24.397Z" fill="#50565D"/>
<path d="M45.7844 14.074V7.82647C45.7844 7.12171 45.6186 6.57251 45.287 6.17886C44.9556 5.77885 44.5065 5.57885 43.9399 5.57885C43.5903 5.57885 43.2768 5.66457 42.9996 5.836C42.7222 6.00108 42.5022 6.24869 42.3394 6.57886C42.1767 6.90266 42.0953 7.28996 42.0953 7.74076L41.1278 7.14075C41.1218 6.42965 41.2726 5.80425 41.5799 5.26457C41.8934 4.71854 42.3154 4.29314 42.8458 3.98838C43.3763 3.68362 43.967 3.53125 44.618 3.53125C45.697 3.53125 46.5228 3.87409 47.0954 4.55981C47.6742 5.23917 47.9635 6.13441 47.9635 7.24552V14.074H45.7844ZM34.0391 14.074V3.78838H35.965V6.97885H36.2363V14.074H34.0391ZM39.9253 14.074V7.85505C39.9253 7.13758 39.7596 6.57886 39.428 6.17886C39.0965 5.77885 38.6444 5.57885 38.0717 5.57885C37.5172 5.57885 37.0712 5.77885 36.7336 6.17886C36.402 6.57886 36.2363 7.09949 36.2363 7.74076L35.2597 7.05504C35.2597 6.38838 35.4165 5.78839 35.7299 5.25505C36.0434 4.72171 36.4654 4.30266 36.9958 3.9979C37.5322 3.6868 38.132 3.53125 38.7951 3.53125C39.5245 3.53125 40.1332 3.69632 40.6216 4.02647C41.1159 4.35029 41.4835 4.79473 41.7246 5.35982C41.9717 5.91854 42.0953 6.55028 42.0953 7.25504V14.074H39.9253Z" fill="#50565D"/>
<path d="M53.0078 14.3572C51.8022 14.3572 50.8229 14.0715 50.0695 13.5C49.3161 12.9286 48.858 12.1254 48.6953 11.0905L50.9193 10.7286C51.0337 11.2365 51.287 11.6365 51.6788 11.9286C52.0705 12.2207 52.5648 12.3667 53.1613 12.3667C53.6857 12.3667 54.0896 12.2588 54.373 12.0429C54.6622 11.8207 54.8068 11.5191 54.8068 11.1381C54.8068 10.9032 54.7526 10.7159 54.6441 10.5762C54.5416 10.4302 54.3126 10.2905 53.957 10.1571C53.6014 10.0238 53.0559 9.85554 52.3207 9.65237C51.501 9.4238 50.8499 9.17936 50.3678 8.91904C49.8856 8.65237 49.539 8.33809 49.328 7.97619C49.1172 7.61429 49.0116 7.17618 49.0116 6.6619C49.0116 6.02064 49.1713 5.4619 49.4908 4.98571C49.8103 4.50953 50.2563 4.14444 50.8289 3.89048C51.4014 3.63016 52.0766 3.5 52.854 3.5C53.6135 3.5 54.2855 3.62381 54.8702 3.87142C55.4608 4.11905 55.9369 4.47143 56.2986 4.92858C56.6602 5.38571 56.8833 5.92222 56.9676 6.53809L54.7436 6.95714C54.6893 6.51904 54.4995 6.17301 54.1741 5.91905C53.8545 5.66507 53.4266 5.52222 52.8902 5.49047C52.3778 5.45873 51.9649 5.54126 51.6516 5.73809C51.3382 5.92857 51.1814 6.19841 51.1814 6.54761C51.1814 6.74444 51.2448 6.9127 51.3713 7.05237C51.4979 7.19206 51.751 7.33174 52.1308 7.47143C52.5165 7.6111 53.0891 7.78254 53.8486 7.98571C54.6261 8.19524 55.2469 8.43651 55.711 8.70952C56.181 8.97619 56.5186 9.29682 56.7235 9.67141C56.9344 10.046 57.04 10.5 57.04 11.0334C57.04 12.0683 56.6813 12.881 55.9641 13.4715C55.2529 14.0619 54.2674 14.3572 53.0078 14.3572Z" fill="#50565D"/>
<path d="M63.6594 14.0726C63.0145 14.1995 62.3816 14.2535 61.7608 14.2345C61.1461 14.2217 60.5945 14.1043 60.1063 13.8821C59.6181 13.6535 59.2473 13.2948 58.9942 12.8059C58.7713 12.3614 58.6537 11.9075 58.6416 11.444C58.6296 10.9805 58.6236 10.4567 58.6236 9.87254V0.929688H60.7934V9.7392C60.7934 10.1519 60.7964 10.5138 60.8024 10.8249C60.8145 11.136 60.8777 11.39 60.9923 11.5868C61.2093 11.9678 61.5558 12.1805 62.0321 12.2249C62.5082 12.2694 63.0507 12.244 63.6594 12.1487V14.0726ZM56.8516 5.58682V3.78683H63.6594V5.58682H56.8516Z" fill="#50565D"/>
<path d="M68.6221 14.3572C67.6337 14.3572 66.7657 14.1318 66.0184 13.681C65.271 13.2302 64.6863 12.6048 64.2644 11.8048C63.8485 11.0048 63.6406 10.0841 63.6406 9.04285C63.6406 7.91904 63.8456 6.94443 64.2554 6.11904C64.6653 5.2873 65.2349 4.64285 65.964 4.18571C66.6934 3.72858 67.5373 3.5 68.4955 3.5C69.5081 3.5 70.3671 3.75079 71.0722 4.25238C71.7835 4.74762 72.3108 5.44921 72.6545 6.35714C72.9979 7.26508 73.1276 8.33491 73.0431 9.56666H70.8824V8.72856C70.8764 7.61111 70.6894 6.79524 70.3219 6.28094C69.9542 5.76666 69.3756 5.50951 68.586 5.50951C67.694 5.50951 67.0309 5.80159 66.5969 6.38571C66.1629 6.96349 65.946 7.81111 65.946 8.92856C65.946 9.96983 66.1629 10.7762 66.5969 11.3476C67.0309 11.9191 67.6638 12.2048 68.4955 12.2048C69.032 12.2048 69.493 12.081 69.8789 11.8334C70.2706 11.5794 70.572 11.2143 70.7829 10.7381L72.9347 11.4238C72.561 12.3508 71.9824 13.0715 71.1987 13.5857C70.4213 14.1 69.5624 14.3572 68.6221 14.3572ZM65.2589 9.56666V7.83332H71.9764V9.56666H65.2589Z" fill="#50565D"/>
<path d="M73.9766 14.0709V3.78517H75.9023V6.28994L75.6673 5.96612C75.7878 5.62326 75.9475 5.31215 76.1464 5.03279C76.3514 4.74708 76.5955 4.51216 76.8787 4.32803C77.1199 4.15661 77.3851 4.02327 77.6744 3.92803C77.9697 3.82644 78.2711 3.76613 78.5784 3.74708C78.8858 3.72168 79.1841 3.73438 79.4736 3.78517V5.92803C79.1841 5.83913 78.8497 5.81057 78.47 5.84231C78.0963 5.87406 77.7587 5.98518 77.4573 6.17565C77.156 6.34708 76.9089 6.56613 76.716 6.83278C76.5292 7.09945 76.3905 7.40421 76.3002 7.74707C76.2096 8.08359 76.1645 8.44866 76.1645 8.84231V14.0709H73.9766Z" fill="#50565D"/>
<path d="M83.8477 14.3594C82.9497 14.3594 82.1662 14.1213 81.4971 13.6451C80.828 13.1689 80.3097 12.5213 79.942 11.7022C79.5744 10.8832 79.3906 9.95936 79.3906 8.93079C79.3906 7.88953 79.5744 6.96254 79.942 6.14985C80.3157 5.3308 80.8431 4.68635 81.5243 4.21651C82.2053 3.74032 83.0069 3.50223 83.929 3.50223C84.8573 3.50223 85.6348 3.74032 86.2616 4.21651C86.8945 4.68635 87.3737 5.3308 87.6992 6.14985C88.0246 6.96888 88.1874 7.89587 88.1874 8.93079C88.1874 9.95302 88.0246 10.8768 87.6992 11.7022C87.3737 12.5213 86.8885 13.1689 86.2436 13.6451C85.5986 14.1213 84.8 14.3594 83.8477 14.3594ZM84.1823 12.3022C84.7669 12.3022 85.2369 12.1625 85.5927 11.8832C85.9543 11.5975 86.2164 11.2007 86.3792 10.6927C86.5479 10.1848 86.6323 9.59747 86.6323 8.93079C86.6323 8.25778 86.5479 7.67048 86.3792 7.16889C86.2164 6.66096 85.9602 6.2673 85.6107 5.98795C85.2612 5.70222 84.8091 5.55937 84.2545 5.55937C83.6699 5.55937 83.1877 5.71175 82.8079 6.0165C82.4283 6.31491 82.148 6.72128 81.9673 7.23556C81.7864 7.74349 81.696 8.30857 81.696 8.93079C81.696 9.55937 81.7834 10.1308 81.9581 10.6451C82.139 11.153 82.4132 11.5562 82.7809 11.8546C83.1486 12.153 83.6157 12.3022 84.1823 12.3022ZM86.6323 14.0737V6.85461H86.3611V0.359375H88.558V14.0737H86.6323Z" fill="#50565D"/>
<path d="M112.784 14.074V7.82647C112.784 7.12171 112.618 6.57251 112.287 6.17886C111.955 5.77885 111.506 5.57885 110.939 5.57885C110.59 5.57885 110.276 5.66457 109.999 5.836C109.722 6.00108 109.502 6.24869 109.339 6.57886C109.176 6.90266 109.095 7.28996 109.095 7.74076L108.127 7.14075C108.121 6.42965 108.272 5.80425 108.579 5.26457C108.893 4.71854 109.315 4.29314 109.845 3.98838C110.376 3.68362 110.966 3.53125 111.618 3.53125C112.697 3.53125 113.522 3.87409 114.095 4.55981C114.674 5.23917 114.963 6.13441 114.963 7.24552V14.074H112.784ZM101.039 14.074V3.78838H102.965V6.97885H103.236V14.074H101.039ZM106.925 14.074V7.85505C106.925 7.13758 106.759 6.57886 106.428 6.17886C106.096 5.77885 105.644 5.57885 105.071 5.57885C104.517 5.57885 104.071 5.77885 103.733 6.17886C103.402 6.57886 103.236 7.09949 103.236 7.74076L102.259 7.05504C102.259 6.38838 102.416 5.78839 102.729 5.25505C103.043 4.72171 103.465 4.30266 103.995 3.9979C104.532 3.6868 105.131 3.53125 105.795 3.53125C106.524 3.53125 107.133 3.69632 107.621 4.02647C108.115 4.35029 108.483 4.79473 108.724 5.35982C108.971 5.91854 109.095 6.55028 109.095 7.25504V14.074H106.925Z" fill="#50565D"/>
<path d="M93.6323 14.3572C92.927 14.3572 92.3303 14.2175 91.8421 13.9381C91.3539 13.6524 90.9833 13.2746 90.73 12.8048C90.483 12.3349 90.3594 11.8175 90.3594 11.2524C90.3594 10.7572 90.4378 10.3127 90.5945 9.91904C90.7511 9.51905 90.9923 9.17619 91.3177 8.89046C91.6432 8.59841 92.0651 8.36032 92.5834 8.17618C92.9753 8.04286 93.4334 7.92221 93.9578 7.81429C94.488 7.70635 95.0607 7.60792 95.6754 7.51904C96.2962 7.42381 96.9442 7.32222 97.6193 7.21428L96.8417 7.68094C96.8478 6.96984 96.6971 6.44602 96.3897 6.10952C96.0823 5.77301 95.5639 5.60476 94.8346 5.60476C94.3947 5.60476 93.9697 5.7127 93.5599 5.92857C93.15 6.14444 92.8637 6.51586 92.7009 7.04285L90.712 6.38571C90.9531 5.51588 91.4112 4.81746 92.0862 4.29047C92.7672 3.7635 93.6834 3.5 94.8346 3.5C95.7026 3.5 96.465 3.64921 97.122 3.94761C97.785 4.24603 98.2762 4.73493 98.5957 5.41428C98.7704 5.77618 98.876 6.14762 98.9122 6.52857C98.9482 6.90317 98.9664 7.3127 98.9664 7.75713V14.0715H97.0588V11.8429L97.3751 12.2048C96.9352 12.9477 96.4198 13.4937 95.8291 13.8429C95.2445 14.1857 94.5122 14.3572 93.6323 14.3572ZM94.0661 12.5286C94.5604 12.5286 94.9823 12.4365 95.3319 12.2524C95.6815 12.0683 95.9588 11.8429 96.1636 11.5762C96.3746 11.3096 96.5163 11.0588 96.5886 10.8238C96.7031 10.5318 96.7664 10.1984 96.7785 9.8238C96.7965 9.44286 96.8055 9.13492 96.8055 8.9L97.4746 9.10952C96.8176 9.21746 96.2541 9.31269 95.784 9.39523C95.3138 9.47776 94.9101 9.55714 94.5725 9.63332C94.2349 9.70316 93.9366 9.78253 93.6775 9.87143C93.4242 9.96666 93.2103 10.0778 93.0356 10.2047C92.8607 10.3317 92.7252 10.4778 92.6287 10.6429C92.5382 10.808 92.493 11.0016 92.493 11.2238C92.493 11.4778 92.5533 11.7032 92.6739 11.9C92.7944 12.0905 92.9693 12.2429 93.1983 12.3572C93.4334 12.4714 93.7227 12.5286 94.0661 12.5286Z" fill="#50565D"/>
</g>
<defs>
<clipPath id="clip0_3002_3098">
<rect width="115" height="14" fill="white" transform="translate(0.460938 0.359375)"/>
</clipPath>
</defs>
</svg>
