<svg width="82" height="17" viewBox="0 0 82 17" fill="none" xmlns="http://www.w3.org/2000/svg">
<g clip-path="url(#clip0_3002_3078)">
<path d="M36.2576 15.317C35.0393 15.317 33.9932 15.1066 33.1195 14.6856C32.2458 14.2647 31.532 13.7174 30.9781 13.0439C30.4367 12.3704 30.0367 11.6368 29.7783 10.843C29.5199 10.0492 29.3906 9.28543 29.3906 8.55177V8.15489C29.3906 7.33705 29.5199 6.53124 29.7783 5.73746C30.049 4.94367 30.4613 4.22207 31.0149 3.5726C31.5688 2.92314 32.2704 2.40599 33.1195 2.02111C33.9809 1.62423 34.9962 1.42578 36.1651 1.42578C37.3834 1.42578 38.4419 1.64226 39.3404 2.07524C40.2509 2.49618 40.977 3.09754 41.5183 3.8793C42.06 4.64903 42.386 5.55105 42.4968 6.58537H39.8572C39.7587 5.98401 39.5371 5.47887 39.1925 5.06996C38.8604 4.64903 38.4359 4.33631 37.9188 4.13186C37.402 3.91538 36.8175 3.80714 36.1651 3.80714C35.5007 3.80714 34.91 3.92138 34.3932 4.14991C33.8764 4.36639 33.4456 4.67908 33.1009 5.08802C32.7563 5.49692 32.4919 5.97801 32.3072 6.53124C32.135 7.08449 32.0488 7.69785 32.0488 8.37137C32.0488 9.02084 32.135 9.6222 32.3072 10.1754C32.4919 10.7287 32.7626 11.2158 33.1195 11.6368C33.4764 12.0457 33.9132 12.3644 34.43 12.5929C34.9591 12.8214 35.5684 12.9357 36.2576 12.9357C37.2667 12.9357 38.1158 12.6951 38.805 12.2141C39.5063 11.7209 39.9308 11.0354 40.0787 10.1574H42.7184C42.5953 11.0956 42.2692 11.9555 41.7399 12.7372C41.2108 13.519 40.4848 14.1444 39.5617 14.6134C38.6389 15.0825 37.5373 15.317 36.2576 15.317Z" fill="#50565D"/>
<path d="M43.927 14.9743V1.80469H46.493V14.9743H43.927ZM42.6719 3.68091V1.80469H46.493V3.68091H42.6719Z" fill="#50565D"/>
<path d="M53.3185 15.3175C52.4325 15.3175 51.6511 15.1792 50.9741 14.9025C50.2974 14.6259 49.7249 14.2531 49.2575 13.784C48.7899 13.303 48.433 12.7617 48.1868 12.1604C47.953 11.5591 47.8359 10.9336 47.8359 10.2842V9.90532C47.8359 9.23183 47.959 8.59439 48.2051 7.99303C48.4635 7.37967 48.8267 6.83844 49.2944 6.36938C49.7743 5.88831 50.3528 5.51549 51.0295 5.25087C51.7064 4.97426 52.4694 4.83594 53.3185 4.83594C54.1676 4.83594 54.9305 4.97426 55.6075 5.25087C56.2842 5.51549 56.8566 5.88831 57.324 6.36938C57.804 6.83844 58.1672 7.37967 58.4133 7.99303C58.6594 8.59439 58.7825 9.23183 58.7825 9.90532V10.2842C58.7825 10.9336 58.6594 11.5591 58.4133 12.1604C58.1795 12.7617 57.8288 13.303 57.3612 13.784C56.8935 14.2531 56.3213 14.6259 55.6443 14.9025C54.9676 15.1792 54.1922 15.3175 53.3185 15.3175ZM53.3185 13.1707C53.9461 13.1707 54.4751 13.0384 54.906 12.7738C55.3368 12.4972 55.6629 12.1303 55.8844 11.6733C56.1057 11.2043 56.2165 10.6751 56.2165 10.0857C56.2165 9.48439 56.0997 8.95519 55.8659 8.49818C55.6443 8.02911 55.312 7.66228 54.8691 7.3977C54.4383 7.12108 53.9215 6.98277 53.3185 6.98277C52.7155 6.98277 52.1924 7.12108 51.7496 7.3977C51.3187 7.66228 50.9864 8.02911 50.7525 8.49818C50.5187 8.95519 50.4019 9.48439 50.4019 10.0857C50.4019 10.6751 50.5127 11.2043 50.7343 11.6733C50.9681 12.1303 51.3002 12.4972 51.731 12.7738C52.1616 13.0384 52.6909 13.1707 53.3185 13.1707Z" fill="#50565D"/>
<path d="M63.5195 15.2809C62.3626 15.2809 61.4643 14.908 60.8245 14.1624C60.1969 13.4167 59.8828 12.3102 59.8828 10.8429V5.16016H62.4488V11.0594C62.4488 11.6607 62.6212 12.1418 62.9656 12.5026C63.3102 12.8514 63.7779 13.0258 64.3686 13.0258C64.9594 13.0258 65.4393 12.8394 65.8085 12.4665C66.19 12.0937 66.3807 11.5886 66.3807 10.9512V5.16016H68.9466V14.9742H66.916V10.8068H67.119C67.119 11.793 66.99 12.6169 66.7313 13.2784C66.4729 13.9398 66.0854 14.439 65.5684 14.7757C65.0516 15.1125 64.4055 15.2809 63.6303 15.2809H63.5195Z" fill="#50565D"/>
<path d="M75.1304 15.299C74.4289 15.299 73.7828 15.1728 73.192 14.9202C72.6015 14.6676 72.0908 14.3128 71.6599 13.8558C71.2293 13.3988 70.897 12.8696 70.6632 12.2682C70.4293 11.6549 70.3125 10.9934 70.3125 10.2837V9.90488C70.3125 9.20733 70.4233 8.55184 70.6446 7.93848C70.8784 7.32509 71.1985 6.78989 71.6045 6.33285C72.0231 5.87584 72.5213 5.52104 73.0998 5.26848C73.6905 5.00387 74.3427 4.87157 75.0565 4.87157C75.8442 4.87157 76.5332 5.03997 77.1239 5.37672C77.7269 5.70144 78.2069 6.19456 78.5638 6.85605C78.9207 7.51752 79.1177 8.34738 79.1545 9.34562L78.3976 8.47968V1.80469H80.9636V14.9743H78.933V10.8069H79.3761C79.339 11.8052 79.13 12.6411 78.7485 13.3146C78.3668 13.9761 77.8623 14.4752 77.2347 14.812C76.6194 15.1367 75.9179 15.299 75.1304 15.299ZM75.7026 13.1883C76.2071 13.1883 76.6688 13.0801 77.0871 12.8636C77.5054 12.635 77.8377 12.3103 78.0838 11.8894C78.3422 11.4564 78.4715 10.9513 78.4715 10.374V9.65232C78.4715 9.07501 78.3422 8.59394 78.0838 8.20906C77.8254 7.81219 77.4871 7.51152 77.0685 7.30706C76.6502 7.09056 76.1948 6.98232 75.7026 6.98232C75.1487 6.98232 74.6564 7.11461 74.2259 7.37922C73.8073 7.63178 73.4752 7.99258 73.2291 8.46165C72.9953 8.93069 72.8782 9.47792 72.8782 10.1033C72.8782 10.7288 73.0013 11.276 73.2474 11.745C73.4935 12.2021 73.8259 12.5569 74.2444 12.8094C74.675 13.062 75.1612 13.1883 75.7026 13.1883Z" fill="#50565D"/>
<path d="M19.7177 16.3594C18.8312 16.3594 18.2851 15.9594 17.3927 15.4883C16.5003 15.0172 13.9193 13.1205 13.9193 10.7594C13.9193 9.15768 13.4969 7.86223 12.7774 6.82982C12.0633 5.80535 11.0959 5.09555 10.0895 4.59451C9.60452 4.35313 9.09984 4.15571 8.59729 3.99257C8.30432 3.89753 8.13431 3.59009 8.26143 3.31523C9.06707 1.57214 10.8613 0.359375 12.9456 0.359375C15.7827 0.359375 18.0828 2.60715 18.0828 5.38006C18.0828 5.97328 17.9776 6.54257 17.7842 7.07084C18.6031 6.53151 19.5898 6.21678 20.6515 6.21678C23.4886 6.21678 25.7886 8.46457 25.7886 11.2375C25.7886 14.5757 22.7871 16.3594 19.7177 16.3594Z" fill="#50565D"/>
<path d="M0.960938 10.8219C0.960938 13.4684 2.74625 15.6735 5.11136 16.1607C5.47642 16.2911 5.87053 16.3622 6.28167 16.3622H14.2634C14.5311 16.3622 14.6476 16.0123 14.4433 15.8433C13.0483 14.6898 12.0117 13.0641 12.0117 10.7622C12.0117 9.49726 11.6839 8.57604 11.2011 7.88348C10.7128 7.18294 10.026 6.65937 9.22489 6.26044C8.4163 5.85796 7.53846 5.60156 6.70016 5.4198C6.50272 5.39545 6.30179 5.38281 6.09821 5.38281C3.26092 5.38281 0.960938 7.81798 0.960938 10.8219Z" fill="#50565D"/>
</g>
<defs>
<clipPath id="clip0_3002_3078">
<rect width="81" height="16" fill="white" transform="translate(0.460938 0.359375)"/>
</clipPath>
</defs>
</svg>
