<svg width="98" height="21" viewBox="0 0 98 21" fill="none" xmlns="http://www.w3.org/2000/svg">
<g clip-path="url(#clip0_3002_3111)">
<path d="M3.32375 2.9751C4.63084 1.69885 6.40571 0.953922 8.20458 0.861263C8.82025 0.861263 9.43773 0.865042 10.0534 0.859375C10.022 1.53438 10.0534 2.21125 10.0349 2.88621C9.94801 4.39502 9.4026 5.86977 8.48376 7.05337C7.28943 8.64538 5.46282 9.71362 3.52343 9.98967C2.67668 10.1296 1.81697 10.0407 0.964681 10.0653C0.979459 9.32224 0.933248 8.57731 0.990573 7.83614C1.15697 5.99836 2.00557 4.2381 3.32375 2.9751Z" fill="#50565D"/>
<path d="M10.625 0.859375C11.2851 0.866931 11.9451 0.855597 12.607 0.863153C14.2542 0.982258 15.8793 1.62888 17.1198 2.75011C18.4879 3.95071 19.4253 5.66749 19.6657 7.50149C19.7709 8.35229 19.7045 9.21258 19.7452 10.0672C19.1682 10.0653 18.5934 10.0634 18.0164 10.0672C16.5985 10.0275 15.2045 9.5586 14.0176 8.76828C13.4703 8.36745 12.9083 7.96095 12.4979 7.40506C11.5975 6.37649 10.9856 5.08516 10.7545 3.72383C10.5807 2.77845 10.6509 1.8142 10.625 0.859375Z" fill="#50565D"/>
<path d="M0.967769 10.6094C1.55385 10.6435 2.14178 10.5811 2.72598 10.6472C5.2274 10.7021 7.6549 12.139 8.95088 14.3266C9.69413 15.5518 10.0935 17.004 10.0417 18.4464C10.0398 18.9193 10.0472 19.3899 10.0343 19.8609C9.1062 19.8324 8.16885 19.9099 7.25 19.7264C5.20893 19.3749 3.33241 18.1326 2.20276 16.3591C1.34678 15.0696 0.91971 13.4947 0.964073 11.9386C0.964073 11.4943 0.964074 11.0519 0.967769 10.6094Z" fill="#50565D"/>
<path d="M16.6251 10.8105C17.6311 10.5817 18.668 10.6195 19.6905 10.6195L19.7349 10.6649C19.7127 11.6538 19.7885 12.654 19.5944 13.6315C19.1858 15.8247 17.766 17.7834 15.8561 18.8592C14.6673 19.5364 13.3029 19.869 11.944 19.854C11.5096 19.8559 11.0732 19.8463 10.6388 19.8594C10.6388 19.0407 10.6055 18.2185 10.6961 17.4033C10.9069 15.4314 11.9496 13.5956 13.4489 12.3553C14.377 11.6065 15.4678 11.0639 16.6251 10.8105Z" fill="#50565D"/>
<path d="M27.3235 16.1954C27.3235 16.5282 27.2108 16.8098 26.9857 17.0403C26.7728 17.258 26.5036 17.3669 26.1783 17.3669C25.8652 17.3669 25.6023 17.258 25.3897 17.0403C25.1768 16.8098 25.0703 16.5282 25.0703 16.1954V4.32764C25.0703 3.99479 25.1768 3.71953 25.3897 3.50191C25.6148 3.27148 25.8903 3.15625 26.2159 3.15625C26.5412 3.15625 26.8042 3.27148 27.0045 3.50191C27.2171 3.71953 27.3235 3.99479 27.3235 4.32764V16.1954Z" fill="#50565D"/>
<path d="M36.3691 7.09375C36.6944 7.09375 36.9636 7.20895 37.1765 7.43942C37.3891 7.65704 37.4955 7.93229 37.4955 8.26515V13.1428C37.4955 14.4999 37.1264 15.5753 36.3879 16.369C35.649 17.1628 34.5852 17.5595 33.1954 17.5595C31.806 17.5595 30.7419 17.1628 30.0033 16.369C29.2773 15.5753 28.9141 14.4999 28.9141 13.1428V8.26515C28.9141 7.93229 29.0206 7.65704 29.2334 7.43942C29.4463 7.20895 29.7153 7.09375 30.0409 7.09375C30.3665 7.09375 30.6354 7.20895 30.8483 7.43942C31.0612 7.65704 31.1676 7.93229 31.1676 8.26515V13.1428C31.1676 13.9238 31.3367 14.5063 31.6745 14.8904C32.0126 15.2616 32.5195 15.4472 33.1954 15.4472C33.8842 15.4472 34.3973 15.2616 34.7355 14.8904C35.0733 14.5063 35.2423 13.9238 35.2423 13.1428V8.26515C35.2423 7.93229 35.3488 7.65704 35.5617 7.43942C35.7742 7.20895 36.0435 7.09375 36.3691 7.09375Z" fill="#50565D"/>
<path d="M44.2688 6.90234C45.2703 6.90234 46.0089 7.15199 46.4848 7.65127C46.9603 8.13778 47.2734 8.77147 47.4234 9.55241L47.1043 9.37958L47.2546 9.07234C47.4046 8.77787 47.6363 8.46423 47.9493 8.13137C48.2621 7.78571 48.6378 7.49765 49.0758 7.26722C49.5266 7.02395 50.0272 6.90234 50.5782 6.90234C51.4796 6.90234 52.1618 7.10079 52.6248 7.49765C53.1007 7.89451 53.426 8.42581 53.6013 9.09155C53.7766 9.74445 53.8643 10.4742 53.8643 11.2807V16.1968C53.8643 16.5297 53.7579 16.8112 53.545 17.0418C53.3321 17.2595 53.0631 17.3683 52.7375 17.3683C52.4122 17.3683 52.143 17.2595 51.9301 17.0418C51.7172 16.8112 51.6108 16.5297 51.6108 16.1968V11.2807C51.6108 10.8582 51.561 10.4806 51.4608 10.1477C51.3606 9.80205 51.179 9.52683 50.9161 9.32198C50.6534 9.11713 50.2777 9.01471 49.7896 9.01471C49.3137 9.01471 48.907 9.11713 48.5689 9.32198C48.2308 9.52683 47.9744 9.80205 47.7991 10.1477C47.6363 10.4806 47.5549 10.8582 47.5549 11.2807V16.1968C47.5549 16.5297 47.4484 16.8112 47.2358 17.0418C47.0229 17.2595 46.7537 17.3683 46.4284 17.3683C46.1028 17.3683 45.8336 17.2595 45.621 17.0418C45.4081 16.8112 45.3017 16.5297 45.3017 16.1968V11.2807C45.3017 10.8582 45.2516 10.4806 45.1514 10.1477C45.0512 9.80205 44.8696 9.52683 44.6069 9.32198C44.3439 9.11713 43.9683 9.01471 43.4802 9.01471C43.0046 9.01471 42.5976 9.11713 42.2595 9.32198C41.9217 9.52683 41.6649 9.80205 41.4896 10.1477C41.3271 10.4806 41.2457 10.8582 41.2457 11.2807V16.1968C41.2457 16.5297 41.1393 16.8112 40.9264 17.0418C40.7135 17.2595 40.4446 17.3683 40.119 17.3683C39.7934 17.3683 39.5244 17.2595 39.3116 17.0418C39.0987 16.8112 38.9922 16.5297 38.9922 16.1968V8.26578C38.9922 7.93293 39.0987 7.65767 39.3116 7.44005C39.5244 7.20959 39.7934 7.09439 40.119 7.09439C40.4446 7.09439 40.7135 7.20959 40.9264 7.44005C41.1393 7.65767 41.2457 7.93293 41.2457 8.26578V9.09155L40.964 9.03392C41.0767 8.81629 41.2332 8.58583 41.4333 8.34259C41.6336 8.08655 41.8778 7.84971 42.1659 7.63206C42.4536 7.41443 42.7729 7.24161 43.1233 7.11357C43.4739 6.97275 43.8559 6.90234 44.2688 6.90234Z" fill="#50565D"/>
<path d="M57.4893 16.1984C57.4893 16.5313 57.3828 16.8128 57.1699 17.0434C56.9574 17.2611 56.6881 17.3699 56.3625 17.3699C56.0372 17.3699 55.768 17.2611 55.5551 17.0434C55.3425 16.8128 55.2361 16.5313 55.2361 16.1984V8.26736C55.2361 7.93451 55.3425 7.65926 55.5551 7.44163C55.768 7.21117 56.0372 7.09597 56.3625 7.09597C56.6881 7.09597 56.9574 7.21117 57.1699 7.44163C57.3828 7.65926 57.4893 7.93451 57.4893 8.26736V16.1984ZM56.3437 5.84773C55.9183 5.84773 55.6177 5.77732 55.4424 5.63648C55.2674 5.49567 55.1797 5.24602 55.1797 4.88755V4.52268C55.1797 4.15144 55.2736 3.90176 55.4612 3.77376C55.6615 3.63291 55.9621 3.5625 56.3625 3.5625C56.8008 3.5625 57.1076 3.63291 57.2827 3.77376C57.458 3.91457 57.5456 4.16421 57.5456 4.52268V4.88755C57.5456 5.25883 57.4517 5.51487 57.2639 5.65569C57.0763 5.78373 56.7695 5.84773 56.3437 5.84773Z" fill="#50565D"/>
<path d="M64.23 6.90234C65.1564 6.90234 65.8573 7.10079 66.3329 7.49765C66.8213 7.89451 67.1528 8.42581 67.3282 9.09155C67.516 9.74445 67.6099 10.4742 67.6099 11.2807V16.1968C67.6099 16.5297 67.5035 16.8112 67.2906 17.0418C67.0777 17.2595 66.8088 17.3683 66.4832 17.3683C66.1579 17.3683 65.8886 17.2595 65.6757 17.0418C65.4629 16.8112 65.3564 16.5297 65.3564 16.1968V11.2807C65.3564 10.8582 65.3004 10.4806 65.1877 10.1477C65.0875 9.80205 64.8996 9.52683 64.6241 9.32198C64.3489 9.11713 63.9545 9.01471 63.4413 9.01471C62.9404 9.01471 62.5149 9.11713 62.1643 9.32198C61.8265 9.52683 61.5635 9.80205 61.3756 10.1477C61.2003 10.4806 61.1127 10.8582 61.1127 11.2807V16.1968C61.1127 16.5297 61.0065 16.8112 60.7936 17.0418C60.5807 17.2595 60.3115 17.3683 59.9862 17.3683C59.6606 17.3683 59.3914 17.2595 59.1788 17.0418C58.9659 16.8112 58.8594 16.5297 58.8594 16.1968V8.26578C58.8594 7.93293 58.9659 7.65767 59.1788 7.44005C59.3914 7.20959 59.6606 7.09439 59.9862 7.09439C60.3115 7.09439 60.5807 7.20959 60.7936 7.44005C61.0065 7.65767 61.1127 7.93293 61.1127 8.26578V9.09155L60.8312 9.03392C60.9439 8.81629 61.1064 8.58583 61.3193 8.34259C61.5322 8.08655 61.7826 7.84971 62.0704 7.63206C62.3584 7.41443 62.684 7.24161 63.0468 7.11357C63.41 6.97275 63.8042 6.90234 64.23 6.90234Z" fill="#50565D"/>
<path d="M78.7619 12.2409C78.7619 13.2907 78.5303 14.2189 78.0672 15.0254C77.6164 15.8191 77.0031 16.4401 76.2269 16.8881C75.4633 17.3363 74.6058 17.5601 73.6544 17.5601C72.703 17.5601 71.8392 17.3363 71.0631 16.8881C70.2995 16.4401 69.6861 15.8191 69.2228 15.0254C68.7723 14.2189 68.5469 13.2907 68.5469 12.2409C68.5469 11.1911 68.7723 10.2694 69.2228 9.4756C69.6861 8.66905 70.2995 8.04176 71.0631 7.59367C71.8392 7.13278 72.703 6.90234 73.6544 6.90234C74.6058 6.90234 75.4633 7.13278 76.2269 7.59367C77.0031 8.04176 77.6164 8.66905 78.0672 9.4756C78.5303 10.2694 78.7619 11.1911 78.7619 12.2409ZM76.5087 12.2409C76.5087 11.588 76.3772 11.0247 76.1142 10.551C75.8638 10.0645 75.5197 9.68685 75.0814 9.418C74.6559 9.14915 74.18 9.01471 73.6544 9.01471C73.1287 9.01471 72.6466 9.14915 72.2086 9.418C71.7828 9.68685 71.4384 10.0645 71.1758 10.551C70.9253 11.0247 70.8001 11.588 70.8001 12.2409C70.8001 12.881 70.9253 13.4443 71.1758 13.9308C71.4384 14.4045 71.7828 14.7758 72.2086 15.0446C72.6466 15.3135 73.1287 15.4479 73.6544 15.4479C74.18 15.4479 74.6559 15.3135 75.0814 15.0446C75.5197 14.7758 75.8638 14.4045 76.1142 13.9308C76.3772 13.4443 76.5087 12.881 76.5087 12.2409Z" fill="#50565D"/>
<path d="M87.1577 7.09375C87.4833 7.09375 87.7526 7.20895 87.9655 7.43942C88.178 7.65704 88.2845 7.93229 88.2845 8.26515V13.1428C88.2845 14.4999 87.9154 15.5753 87.1765 16.369C86.438 17.1628 85.3741 17.5595 83.9844 17.5595C82.5949 17.5595 81.5308 17.1628 80.7922 16.369C80.0662 15.5753 79.7031 14.4999 79.7031 13.1428V8.26515C79.7031 7.93229 79.8095 7.65704 80.0224 7.43942C80.2353 7.20895 80.5042 7.09375 80.8298 7.09375C81.1554 7.09375 81.4243 7.20895 81.6372 7.43942C81.8501 7.65704 81.9566 7.93229 81.9566 8.26515V13.1428C81.9566 13.9238 82.1253 14.5063 82.4634 14.8904C82.8016 15.2616 83.3084 15.4472 83.9844 15.4472C84.6728 15.4472 85.1863 15.2616 85.5241 14.8904C85.8622 14.5063 86.0313 13.9238 86.0313 13.1428V8.26515C86.0313 7.93229 86.1377 7.65704 86.3503 7.43942C86.5632 7.20895 86.8324 7.09375 87.1577 7.09375Z" fill="#50565D"/>
<path d="M89.202 15.7744C89.0768 15.5951 89.0205 15.3647 89.033 15.083C89.0455 14.8014 89.2083 14.5581 89.5214 14.3533C89.7214 14.2252 89.9343 14.174 90.1597 14.1997C90.3848 14.2125 90.604 14.3277 90.8169 14.5453C91.1801 14.9166 91.5617 15.2046 91.9624 15.4095C92.3629 15.6143 92.8638 15.7167 93.4646 15.7167C93.6524 15.7039 93.8587 15.6783 94.0842 15.6399C94.3096 15.5887 94.5037 15.4863 94.6662 15.3327C94.8415 15.1662 94.9292 14.9166 94.9292 14.5837C94.9292 14.3021 94.8352 14.078 94.6474 13.9116C94.4599 13.7452 94.2094 13.6044 93.8963 13.4891C93.5961 13.3739 93.258 13.2651 92.8826 13.1627C92.4944 13.0474 92.0936 12.9194 91.6807 12.7786C91.2799 12.6378 90.9108 12.4585 90.5727 12.2409C90.2349 12.0105 89.9594 11.7096 89.7465 11.3383C89.5339 10.9671 89.4275 10.4998 89.4275 9.93649C89.4275 9.29637 89.6025 8.75229 89.9531 8.30421C90.3038 7.85612 90.7543 7.51046 91.305 7.26722C91.8685 7.02395 92.4568 6.90234 93.0701 6.90234C93.4583 6.90234 93.865 6.95354 94.2908 7.05597C94.7163 7.14558 95.1233 7.2992 95.5112 7.51686C95.8994 7.72168 96.225 7.99693 96.4877 8.34259C96.6254 8.53463 96.7068 8.76507 96.7319 9.03392C96.7569 9.30277 96.6379 9.54601 96.3749 9.76366C96.1874 9.91728 95.9683 9.98769 95.7178 9.97489C95.4676 9.9493 95.261 9.85969 95.0982 9.70607C94.8853 9.42441 94.5976 9.20035 94.2344 9.03392C93.8838 8.86749 93.4771 8.78428 93.0138 8.78428C92.8262 8.78428 92.6196 8.80989 92.3942 8.86109C92.1813 8.89951 91.9938 8.99553 91.831 9.14915C91.6682 9.28996 91.5868 9.52043 91.5868 9.84048C91.5868 10.1349 91.6807 10.3718 91.8685 10.551C92.0564 10.7174 92.3065 10.8582 92.6196 10.9735C92.9449 11.0759 93.2893 11.1783 93.6524 11.2807C94.0278 11.3831 94.4098 11.5048 94.7977 11.6456C95.1859 11.7864 95.5425 11.972 95.8681 12.2025C96.1937 12.4329 96.4563 12.7338 96.6567 13.105C96.8571 13.4635 96.9573 13.9244 96.9573 14.4877C96.9573 15.1406 96.7694 15.6975 96.3937 16.1584C96.0184 16.6193 95.5487 16.9713 94.9855 17.2147C94.4223 17.4452 93.8462 17.5601 93.258 17.5601C92.5194 17.5601 91.7809 17.4324 91.0423 17.1762C90.3038 16.9073 89.6901 16.4401 89.202 15.7744Z" fill="#50565D"/>
</g>
<defs>
<clipPath id="clip0_3002_3111">
<rect width="97" height="20" fill="white" transform="translate(0.460938 0.359375)"/>
</clipPath>
</defs>
</svg>
