<svg width="74" height="25" viewBox="0 0 74 25" fill="none" xmlns="http://www.w3.org/2000/svg">
<g clip-path="url(#clip0_3002_3065)">
<path d="M10.7862 0.635665C11.4366 0.267278 12.2378 0.267278 12.8882 0.635665L21.4997 5.51356L15.5451 8.93435C14.6234 8.02647 13.3478 7.4646 11.9385 7.4646C10.4729 7.4646 9.15188 8.07233 8.22307 9.04494L2.125 5.54173L10.7862 0.635665Z" fill="#50565D"/>
<path d="M7.06017 11.0195L0.960938 7.51562V17.3102L7.03744 13.8194C6.91269 13.3865 6.84593 12.9297 6.84593 12.4577C6.84593 11.9577 6.9208 11.4749 7.06017 11.0195Z" fill="#50565D"/>
<path d="M8.16636 15.8164L2.21875 19.2332L10.7841 24.085C11.4345 24.4533 12.2358 24.4533 12.8861 24.085L21.4018 19.2613L15.5998 15.9282C14.6741 16.8694 13.3749 17.4549 11.9364 17.4549C10.4418 17.4549 9.09761 16.8228 8.16636 15.8164Z" fill="#50565D"/>
<path d="M16.7906 13.9686L22.709 17.3687C22.7092 17.3555 22.7094 17.3423 22.7094 17.3291V7.46094L16.7656 10.8755C16.9352 11.3733 17.027 11.9059 17.027 12.4597C17.027 12.9856 16.9442 13.4926 16.7906 13.9686Z" fill="#50565D"/>
<path fill-rule="evenodd" clip-rule="evenodd" d="M29.7522 18.0791C30.6052 18.5899 31.6302 18.8454 32.8266 18.8454C34.0231 18.8454 35.0478 18.5899 35.901 18.0791C36.7597 17.5627 37.4159 16.8454 37.8702 15.9269C38.3301 15.0085 38.5599 13.9432 38.5599 12.7313C38.5599 11.5194 38.3301 10.4542 37.8702 9.53564C37.4159 8.61718 36.7597 7.90252 35.901 7.39165C35.0478 6.87535 34.0231 6.61719 32.8266 6.61719C31.6302 6.61719 30.6052 6.87535 29.7522 7.39165C28.8992 7.90252 28.2428 8.61718 27.7831 9.53564C27.3288 10.4542 27.1016 11.5194 27.1016 12.7313C27.1016 13.9432 27.3288 15.0085 27.7831 15.9269C28.2428 16.8454 28.8992 17.5627 29.7522 18.0791ZM34.8292 16.4732C34.2974 16.8265 33.6298 17.0003 32.8266 16.9949C32.0234 16.984 31.3531 16.8019 30.8158 16.4486C30.284 16.0954 29.8853 15.6035 29.6194 14.9731C29.3535 14.3373 29.2204 13.59 29.2204 12.7313C29.2204 11.8726 29.3535 11.1226 29.6194 10.4813C29.8907 9.84 30.2922 9.34272 30.824 8.98945C31.3558 8.6362 32.0234 8.46228 32.8266 8.46773C33.6298 8.4786 34.2974 8.66065 34.8292 9.0139C35.3665 9.36717 35.768 9.86173 36.0339 10.4976C36.3054 11.1281 36.441 11.8726 36.441 12.7313C36.441 13.59 36.3054 14.34 36.0339 14.9813C35.768 15.6225 35.3665 16.1199 34.8292 16.4732Z" fill="#50565D"/>
<path d="M39.5547 18.1892C39.5547 18.4169 39.7428 18.6017 39.9751 18.6017H41.1451C41.3774 18.6017 41.5655 18.4169 41.5655 18.1892V14.1261C41.5655 13.7891 41.6071 13.4767 41.6901 13.1886C41.7732 12.8952 41.9005 12.6343 42.0723 12.406C42.2497 12.1778 42.4767 11.9903 42.7537 11.8435C43.0306 11.6805 43.3408 11.5854 43.6843 11.5582C43.8132 11.5482 43.9363 11.5452 44.0538 11.5492C44.334 11.5589 44.6067 11.3566 44.6067 11.0816V10.1468C44.6067 9.94516 44.4581 9.77028 44.2529 9.75904C44.0992 9.75065 43.9429 9.75254 43.7839 9.76477C43.5014 9.78108 43.2246 9.8327 42.9532 9.91967C42.6873 10.0012 42.4435 10.1153 42.2219 10.262C41.9615 10.4196 41.7372 10.6207 41.5489 10.8653C41.4669 10.9726 41.3921 11.0854 41.3246 11.2036V10.2098C41.3246 9.98205 41.1363 9.7974 40.9042 9.7974H39.9751C39.7428 9.7974 39.5547 9.98205 39.5547 10.2098V18.1892Z" fill="#50565D"/>
<path fill-rule="evenodd" clip-rule="evenodd" d="M49.8369 18.843C48.9616 18.843 48.2276 18.6393 47.6348 18.2316C47.5091 18.1451 47.3902 18.0521 47.2777 17.9525V18.186C47.2777 18.4137 47.0894 18.5984 46.8573 18.5984H45.9282C45.6959 18.5984 45.5078 18.4137 45.5078 18.186V7.27183C45.5078 7.04403 45.6959 6.85938 45.9282 6.85938H47.1064C47.3387 6.85938 47.5268 7.04403 47.5268 7.27183V10.2207C47.5543 10.2004 47.5819 10.1805 47.61 10.161C48.1916 9.75337 48.9089 9.54956 49.7621 9.54956C50.6096 9.54956 51.3436 9.75337 51.9639 10.161C52.5899 10.5632 53.0746 11.1148 53.4181 11.8159C53.7615 12.5115 53.9333 13.305 53.9333 14.1963C53.9333 15.0767 53.7643 15.8675 53.4263 16.5685C53.0885 17.2697 52.612 17.824 51.9971 18.2316C51.3823 18.6393 50.6621 18.843 49.8369 18.843ZM47.502 12.6881C47.3523 13.1175 47.2777 13.6202 47.2777 14.1963C47.2777 14.7669 47.3523 15.2697 47.502 15.7044C47.6571 16.1392 47.898 16.4788 48.2249 16.7234C48.5572 16.9626 48.9921 17.082 49.5294 17.082C50.05 17.082 50.4795 16.9544 50.8173 16.6991C51.1553 16.4435 51.4044 16.0985 51.5652 15.6636C51.7312 15.2235 51.8145 14.7343 51.8145 14.1963C51.8145 13.6637 51.7312 13.18 51.5652 12.7452C51.3989 12.305 51.1414 11.9572 50.7923 11.7017C50.4433 11.4409 50.0002 11.3104 49.4629 11.3104C48.9532 11.3104 48.5378 11.4327 48.2164 11.6773C47.8953 11.9164 47.6571 12.2533 47.502 12.6881Z" fill="#50565D"/>
<path d="M55.2656 18.1887C55.2656 18.4164 55.4537 18.6011 55.686 18.6011H56.8478C57.0798 18.6011 57.2682 18.4164 57.2682 18.1887V10.2093C57.2682 9.98153 57.0798 9.79688 56.8478 9.79688H55.686C55.4537 9.79688 55.2656 9.98153 55.2656 10.2093V18.1887Z" fill="#50565D"/>
<path d="M64.3503 18.259C64.3503 18.4576 64.2064 18.6292 64.0061 18.6578C63.5321 18.7259 63.0652 18.7533 62.6055 18.7401C62.0405 18.7292 61.5337 18.6288 61.0849 18.4384C60.6363 18.2429 60.2957 17.9358 60.063 17.5172C59.858 17.1369 59.7499 16.7484 59.7388 16.3516C59.7278 15.9548 59.7221 15.5064 59.7221 15.0063V11.338H58.5141C58.2818 11.338 58.0938 11.1533 58.0938 10.9255V10.2097C58.0938 9.98187 58.2818 9.79721 58.5141 9.79721H59.7221V7.76402C59.7221 7.53624 59.9105 7.35156 60.1425 7.35156H61.2959C61.5282 7.35156 61.7164 7.53624 61.7164 7.76402V9.79721H63.93C64.1623 9.79721 64.3503 9.98187 64.3503 10.2097V10.9255C64.3503 11.1533 64.1623 11.338 63.93 11.338H61.7164V14.8923C61.7164 15.2456 61.7194 15.5553 61.7248 15.8216C61.736 16.088 61.794 16.3054 61.8993 16.4739C62.0988 16.7999 62.4172 16.982 62.8549 17.02C63.162 17.0468 63.4993 17.0439 63.8666 17.0117C64.1224 16.9892 64.3503 17.181 64.3503 17.433V18.259Z" fill="#50565D"/>
<path d="M66.6917 18.2449C67.3452 18.647 68.1345 18.8481 69.0596 18.8481C70.0622 18.8481 70.9098 18.6089 71.6022 18.1306C72.1827 17.7252 72.6172 17.1746 72.9056 16.479C72.9977 16.2566 72.8531 16.0153 72.6145 15.9632L71.3814 15.6926C71.1717 15.6466 70.964 15.7656 70.8692 15.9549C70.7254 16.242 70.5404 16.4726 70.3143 16.647C70.0097 16.886 69.5914 17.0057 69.0596 17.0057C68.3062 17.0057 67.7385 16.7475 67.3563 16.2313C66.9742 15.7149 66.7829 15.0382 66.7829 14.2014C66.7829 13.6633 66.8632 13.1823 67.024 12.7584C67.1846 12.3345 67.4339 12.003 67.7717 11.7639C68.1097 11.5193 68.5389 11.397 69.0596 11.397C69.5195 11.397 69.9294 11.5302 70.2895 11.7965C70.5509 11.9859 70.7584 12.2313 70.9116 12.5326C71.0121 12.7296 71.2326 12.8517 71.4493 12.7941L72.6607 12.4723C72.8808 12.4138 73.0158 12.1927 72.9401 11.9817C72.6933 11.2927 72.2695 10.7364 71.6688 10.3128C70.9652 9.8074 70.1038 9.55469 69.0846 9.55469C68.1761 9.55469 67.3923 9.75576 66.7331 10.1579C66.0739 10.5547 65.5643 11.1036 65.2043 11.8046C64.8497 12.5003 64.6697 13.2992 64.6641 14.2014C64.6697 15.0873 64.8442 15.8807 65.1877 16.5819C65.5366 17.2828 66.0379 17.8372 66.6917 18.2449Z" fill="#50565D"/>
<path d="M55.216 7.42204L55.78 6.86872C56.0261 6.62709 56.4255 6.62709 56.6716 6.86872L57.2356 7.42204C57.482 7.66366 57.482 8.05539 57.2356 8.29701L56.6716 8.85032C56.4255 9.09194 56.0261 9.09194 55.78 8.85032L55.216 8.29701C54.9697 8.05539 54.9697 7.66366 55.216 7.42204Z" fill="#50565D"/>
</g>
<defs>
<clipPath id="clip0_3002_3065">
<rect width="73" height="24" fill="white" transform="translate(0.460938 0.359375)"/>
</clipPath>
</defs>
</svg>
