<svg width="79" height="23" viewBox="0 0 79 23" fill="none" xmlns="http://www.w3.org/2000/svg">
<g clip-path="url(#clip0_3002_3087)">
<path d="M10.5258 21.8568H3.64844L10.5258 11.5234H17.4032L10.5258 21.8568Z" fill="#50565D"/>
<path d="M8.00602 0.859375H15.051L8.00602 11.526H0.960938L8.00602 0.859375Z" fill="#50565D"/>
<path d="M31.4298 9.84606C31.4298 10.4797 31.276 11.0738 30.9685 11.6284C30.6724 12.1828 30.1998 12.6298 29.5507 12.9693C28.9128 13.3087 28.1043 13.4785 27.1249 13.4785H25.126V18.0275H22.7344V6.17969H27.1249C28.0473 6.17969 28.8331 6.3381 29.4823 6.65496C30.1316 6.97181 30.6154 7.40746 30.9345 7.96196C31.2648 8.51643 31.4298 9.14447 31.4298 9.84606ZM27.0222 11.5604C27.6828 11.5604 28.1725 11.4134 28.4916 11.119C28.8104 10.8137 28.9698 10.3893 28.9698 9.84606C28.9698 8.69184 28.3207 8.11473 27.0222 8.11473H25.126V11.5604H27.0222Z" fill="#50565D"/>
<path d="M34.8369 10.0877C35.1445 9.58983 35.543 9.19943 36.0327 8.91655C36.5339 8.63364 37.1033 8.49219 37.7411 8.49219V10.9873H37.1089C36.3574 10.9873 35.788 11.1627 35.4007 11.5136C35.0249 11.8644 34.8369 12.4754 34.8369 13.3467V18.0315H32.4453V8.62798H34.8369V10.0877Z" fill="#50565D"/>
<path d="M42.8707 18.1857C41.9596 18.1857 41.1396 17.9877 40.4107 17.5917C39.6819 17.1843 39.1067 16.6128 38.6854 15.8772C38.2754 15.1416 38.0703 14.2931 38.0703 13.3311C38.0703 12.3694 38.281 11.5206 38.7025 10.7851C39.1352 10.0495 39.7218 9.48369 40.4621 9.08763C41.2024 8.68025 42.028 8.47656 42.9392 8.47656C43.8502 8.47656 44.6758 8.68025 45.4161 9.08763C46.1564 9.48369 46.7373 10.0495 47.1587 10.7851C47.5915 11.5206 47.8079 12.3694 47.8079 13.3311C47.8079 14.2931 47.5857 15.1416 47.1416 15.8772C46.7087 16.6128 46.1165 17.1843 45.365 17.5917C44.6247 17.9877 43.7932 18.1857 42.8707 18.1857ZM42.8707 16.1148C43.3035 16.1148 43.7079 16.013 44.0836 15.8094C44.4709 15.5944 44.7784 15.2774 45.0061 14.8588C45.2339 14.4401 45.3479 13.9309 45.3479 13.3311C45.3479 12.4372 45.1087 11.7526 44.6303 11.2772C44.1634 10.7907 43.5883 10.5475 42.905 10.5475C42.2216 10.5475 41.6464 10.7907 41.1796 11.2772C40.7239 11.7526 40.4963 12.4372 40.4963 13.3311C40.4963 14.2251 40.7183 14.9154 41.1625 15.402C41.618 15.8772 42.1874 16.1148 42.8707 16.1148Z" fill="#50565D"/>
<path d="M51.2666 16.1461H53.8351V18.0302H48.875V4.72266H51.2666V16.1461Z" fill="#50565D"/>
<path d="M55.6957 7.5064C55.2745 7.5064 54.9212 7.37626 54.6366 7.116C54.3633 6.84441 54.2266 6.51059 54.2266 6.11453C54.2266 5.71847 54.3633 5.39031 54.6366 5.13004C54.9212 4.85845 55.2745 4.72266 55.6957 4.72266C56.1172 4.72266 56.4644 4.85845 56.7378 5.13004C57.0226 5.39031 57.1649 5.71847 57.1649 6.11453C57.1649 6.51059 57.0226 6.84441 56.7378 7.116C56.4644 7.37626 56.1172 7.5064 55.6957 7.5064ZM56.8744 8.62668V18.0302H54.4828V8.62668H56.8744Z" fill="#50565D"/>
<path d="M63.7993 8.49219C64.9267 8.49219 65.8379 8.84865 66.5327 9.56155C67.2273 10.2631 67.5747 11.2476 67.5747 12.515V18.0315H65.1829V12.8376C65.1829 12.0906 64.9951 11.5192 64.6193 11.1231C64.2434 10.7157 63.7309 10.5121 63.0818 10.5121C62.4212 10.5121 61.8973 10.7157 61.51 11.1231C61.1342 11.5192 60.9464 12.0906 60.9464 12.8376V18.0315H58.5547V8.62798H60.9464V9.79918C61.2653 9.3918 61.6696 9.07496 62.1593 8.84865C62.6603 8.611 63.207 8.49219 63.7993 8.49219Z" fill="#50565D"/>
<path d="M77.9598 13.1275C77.9598 13.4669 77.9371 13.7725 77.8916 14.0441H70.9729C71.0297 14.7231 71.269 15.2548 71.6902 15.6396C72.1117 16.0244 72.6298 16.2168 73.2449 16.2168C74.1331 16.2168 74.7654 15.8376 75.1411 15.0794H77.7207C77.4474 15.9848 76.9234 16.7316 76.1489 17.3201C75.3746 17.8971 74.4236 18.1857 73.296 18.1857C72.3851 18.1857 71.565 17.9877 70.8362 17.5917C70.1187 17.1843 69.5549 16.6128 69.1449 15.8772C68.7464 15.1416 68.5469 14.2931 68.5469 13.3311C68.5469 12.358 68.7464 11.5036 69.1449 10.7681C69.5434 10.0325 70.1016 9.46671 70.8191 9.07065C71.5365 8.67459 72.3623 8.47656 73.296 8.47656C74.1957 8.47656 74.9988 8.66893 75.7049 9.05367C76.4223 9.43843 76.9748 9.98724 77.362 10.7003C77.7606 11.4018 77.9598 12.2108 77.9598 13.1275ZM75.4827 12.4486C75.4714 11.8374 75.2492 11.3508 74.8165 10.9887C74.3837 10.6153 73.8542 10.4287 73.2278 10.4287C72.6356 10.4287 72.1345 10.6097 71.7245 10.9718C71.3259 11.3226 71.081 11.8148 70.9898 12.4486H75.4827Z" fill="#50565D"/>
</g>
<defs>
<clipPath id="clip0_3002_3087">
<rect width="78" height="22" fill="white" transform="translate(0.460938 0.359375)"/>
</clipPath>
</defs>
</svg>
