<svg width="98" height="23" viewBox="0 0 98 23" fill="none" xmlns="http://www.w3.org/2000/svg">
<g clip-path="url(#clip0_3002_3048)">
<path d="M15.5657 17.3928C15.0378 17.3928 14.4941 17.3396 13.9352 17.2332C13.376 17.1331 12.8574 17.0111 12.379 16.8672C11.9007 16.717 11.5217 16.5731 11.2422 16.4354L11.5217 13.8824C11.9566 14.0951 12.4101 14.2922 12.8822 14.4737C13.3542 14.6552 13.8388 14.8022 14.3357 14.9148C14.8328 15.0275 15.3359 15.0838 15.8453 15.0838C16.4788 15.0838 16.9884 14.9586 17.3734 14.7084C17.7586 14.4581 17.9511 14.0763 17.9511 13.5632C17.9511 13.169 17.8424 12.853 17.6249 12.6152C17.4077 12.3712 17.0753 12.1553 16.628 11.9676C16.1807 11.7736 15.6092 11.5546 14.9134 11.3106C14.2178 11.0665 13.5935 10.7912 13.0406 10.4846C12.4877 10.1717 12.0498 9.77751 11.7267 9.30196C11.4037 8.82638 11.2422 8.21941 11.2422 7.48103C11.2422 6.75518 11.4192 6.11067 11.7733 5.54749C12.1274 4.97807 12.6554 4.53378 13.3575 4.21465C14.0656 3.88927 14.9447 3.72656 15.9944 3.72656C16.7894 3.72656 17.5473 3.81731 18.268 3.99877C18.9886 4.17398 19.6036 4.36482 20.113 4.57132L19.8707 7.03051C19.1375 6.69885 18.4482 6.44855 17.8021 6.2796C17.1621 6.10439 16.5101 6.0168 15.8453 6.0168C15.1497 6.0168 14.6123 6.13255 14.2333 6.36409C13.8543 6.5956 13.6649 6.94289 13.6649 7.40594C13.6649 7.77514 13.7705 8.07236 13.9817 8.29762C14.193 8.52291 14.4941 8.71688 14.8856 8.87958C15.2768 9.036 15.7459 9.20183 16.2926 9.37704C17.2367 9.67739 18.0287 10.009 18.6687 10.372C19.3147 10.7286 19.7993 11.1635 20.1222 11.6766C20.4514 12.1835 20.6161 12.8124 20.6161 13.5632C20.6161 13.9387 20.557 14.3486 20.4391 14.7928C20.321 15.2309 20.0882 15.647 19.7403 16.0412C19.3923 16.4354 18.883 16.7608 18.2121 17.0173C17.5473 17.2676 16.6653 17.3928 15.5657 17.3928Z" fill="#50565D"/>
<path d="M22.125 21.673V7.74395H23.9888L24.4358 9.30205L23.7465 9.05801C24.175 8.61372 24.6408 8.26017 25.1442 7.99737C25.6473 7.72829 26.2623 7.59375 26.9892 7.59375C27.9023 7.59375 28.6695 7.81591 29.2905 8.26017C29.9118 8.70446 30.3808 9.29577 30.6977 10.0342C31.0206 10.7725 31.1821 11.5797 31.1821 12.4558C31.1821 13.3318 31.0206 14.139 30.6977 14.8774C30.3808 15.6158 29.9118 16.2071 29.2905 16.6514C28.6695 17.0956 27.9023 17.3178 26.9892 17.3178C26.2623 17.3178 25.6721 17.2177 25.2188 17.0174C24.7652 16.8172 24.3054 16.4981 23.8396 16.06L24.4358 15.5907V21.673H22.125ZM26.635 15.403C27.3246 15.403 27.8588 15.1308 28.2377 14.5864C28.6229 14.0358 28.8154 13.3256 28.8154 12.4558C28.8154 11.5797 28.6229 10.8695 28.2377 10.3251C27.8588 9.78073 27.3246 9.50853 26.635 9.50853C26.1009 9.50853 25.6628 9.63369 25.3212 9.88398C24.9795 10.1343 24.7279 10.4816 24.5665 10.9258C24.4048 11.3639 24.3242 11.8738 24.3242 12.4558C24.3242 13.0377 24.4048 13.5508 24.5665 13.9951C24.7279 14.4331 24.9795 14.7773 25.3212 15.0276C25.6628 15.2779 26.1009 15.403 26.635 15.403Z" fill="#50565D"/>
<path d="M32.7891 17.1286V7.74243H34.9508L35.0069 8.73736C35.2429 8.47454 35.5751 8.21174 36.0038 7.94891C36.4324 7.68611 36.9014 7.55469 37.4108 7.55469C37.56 7.55469 37.6966 7.56722 37.8208 7.59224L37.6531 9.88247C37.5164 9.84493 37.3798 9.81989 37.2431 9.80738C37.1127 9.79485 36.9823 9.7886 36.8516 9.7886C36.4604 9.7886 36.1032 9.87934 35.7801 10.0608C35.4572 10.2423 35.2304 10.4644 35.1 10.7273V17.1286H32.7891Z" fill="#50565D"/>
<path d="M38.9453 17.1289V7.74275H41.2561V17.1289H38.9453ZM38.9453 6.31603V3.98828H41.2561V6.31603H38.9453Z" fill="#50565D"/>
<path d="M43.4219 17.1301V7.74395H45.5838L45.6769 9.48977L45.1365 8.77642C45.4904 8.47605 45.9129 8.20387 46.4038 7.95983C46.8944 7.71579 47.4658 7.59375 48.1181 7.59375C49.3108 7.59375 50.1961 7.99424 50.7738 8.79518C51.3515 9.58989 51.6404 10.6223 51.6404 11.8926V17.1301H49.3296V12.0803C49.3296 11.2043 49.1834 10.5566 48.8915 10.1374C48.6057 9.71815 48.1369 9.50853 47.4846 9.50853C46.9564 9.50853 46.5247 9.63994 46.1893 9.90274C45.8538 10.1593 45.5587 10.5034 45.3042 10.9352L45.7327 9.79011V17.1301H43.4219Z" fill="#50565D"/>
<path d="M57.3939 21.8592C56.5243 21.8592 55.7634 21.7497 55.1111 21.5307C54.465 21.318 53.9619 21.0114 53.6015 20.6109C53.2473 20.2104 53.0703 19.7317 53.0703 19.1748C53.0703 18.7055 53.1977 18.2862 53.4523 17.917C53.7134 17.5541 54.0891 17.235 54.5799 16.9597C54.3314 16.8095 54.1326 16.6218 53.9835 16.3965C53.8345 16.1712 53.7599 15.9147 53.7599 15.6268C53.7599 15.3265 53.8438 15.0668 54.0115 14.8478C54.1855 14.6225 54.4122 14.4442 54.6918 14.3128C54.2195 13.9749 53.8623 13.5431 53.6203 13.0175C53.378 12.4856 53.2568 11.9099 53.2568 11.2904C53.2568 10.6146 53.4028 9.9951 53.6946 9.43193C53.9867 8.8625 54.4122 8.40883 54.9712 8.07094C55.5366 7.72678 56.2262 7.55469 57.0399 7.55469C57.4622 7.55469 57.8504 7.60789 58.2046 7.71427C58.5648 7.82065 58.8847 7.96769 59.1643 8.15541C59.3507 8.04903 59.6208 7.95519 59.975 7.87382C60.3292 7.78623 60.7237 7.74243 61.1584 7.74243C61.2641 7.74243 61.3634 7.74243 61.4566 7.74243C61.5559 7.74243 61.6553 7.74243 61.7547 7.74243L61.6057 9.20667C61.4691 9.20667 61.3292 9.20667 61.1862 9.20667C61.0496 9.20667 60.9099 9.20667 60.767 9.20667C60.7112 9.20667 60.6366 9.20667 60.5434 9.20667C60.4503 9.20667 60.3507 9.21292 60.2453 9.22543C60.4316 9.51329 60.5712 9.83555 60.6646 10.1922C60.7577 10.5489 60.8043 10.915 60.8043 11.2904C60.8043 11.9662 60.6583 12.5888 60.3665 13.1583C60.0806 13.7214 59.6581 14.1751 59.0992 14.5193C58.54 14.8572 57.8537 15.0261 57.0399 15.0261C56.866 15.0261 56.6983 15.0136 56.5366 14.9886C56.3751 14.9635 56.2137 14.9322 56.0522 14.8947C55.9156 14.951 55.8472 15.0512 55.8472 15.1951C55.8472 15.364 55.9496 15.4923 56.1546 15.5799C56.3596 15.6675 56.6795 15.7457 57.1143 15.8146L58.717 16.0211C59.7172 16.1525 60.4999 16.4372 61.0651 16.8752C61.6368 17.3132 61.9224 17.9358 61.9224 18.743C61.9224 19.3688 61.7424 19.9132 61.382 20.3762C61.028 20.8455 60.5124 21.2085 59.8353 21.465C59.158 21.7278 58.3443 21.8592 57.3939 21.8592ZM57.4872 20.0946C58.2699 20.0946 58.8632 19.9976 59.2669 19.8037C59.6706 19.6097 59.8724 19.3125 59.8724 18.912C59.8724 18.5553 59.7297 18.2925 59.4439 18.1235C59.1643 17.9546 58.717 17.8232 58.102 17.7293L56.0615 17.429C55.7571 17.5479 55.5023 17.7106 55.2973 17.917C55.0923 18.1298 54.9899 18.4051 54.9899 18.743C54.9899 19.1998 55.2105 19.5377 55.6515 19.7567C56.0925 19.982 56.7045 20.0946 57.4872 20.0946ZM57.0399 13.2991C57.5926 13.2991 58.0089 13.1176 58.2885 12.7547C58.5743 12.3855 58.717 11.8974 58.717 11.2904C58.717 10.6772 58.5743 10.1891 58.2885 9.82614C58.0089 9.46322 57.5926 9.28175 57.0399 9.28175C56.4808 9.28175 56.0582 9.46322 55.7726 9.82614C55.4868 10.1891 55.3439 10.6772 55.3439 11.2904C55.3439 11.8974 55.4868 12.3855 55.7726 12.7547C56.0582 13.1176 56.4808 13.2991 57.0399 13.2991Z" fill="#50565D"/>
<path d="M63.5965 17.1261V9.65474H62.2734L62.4784 7.73997H63.5965V5.75011C63.5965 4.92411 63.8388 4.26709 64.3234 3.779C64.814 3.29092 65.5161 3.04688 66.4292 3.04688C66.7273 3.04688 67.0007 3.06253 67.2492 3.09381C67.5038 3.1251 67.7338 3.16578 67.9388 3.21583L67.7338 5.09306C67.6404 5.06176 67.5381 5.03988 67.4262 5.02735C67.3145 5.00859 67.1746 4.99919 67.0069 4.99919C66.6715 4.99919 66.4044 5.08994 66.2057 5.27139C66.0067 5.45285 65.9073 5.75011 65.9073 6.16308V7.73997H67.9573V9.65474H65.9073V17.1261H63.5965Z" fill="#50565D"/>
<path d="M69.5938 17.1289V7.74275H71.9045V17.1289H69.5938ZM69.5938 6.31603V3.98828H71.9045V6.31603H69.5938Z" fill="#50565D"/>
<path d="M78.5582 17.3178C77.4338 17.3178 76.4957 17.0925 75.744 16.642C74.9986 16.1852 74.4395 15.5845 74.0668 14.8399C73.694 14.089 73.5078 13.2692 73.5078 12.3807C73.5078 11.5234 73.6818 10.7318 74.0295 10.006C74.3836 9.28014 74.8993 8.69821 75.5763 8.26017C76.2534 7.81591 77.0797 7.59375 78.0549 7.59375C78.9494 7.59375 79.6948 7.77837 80.2913 8.14754C80.8876 8.51672 81.3349 9.01106 81.633 9.63056C81.9313 10.2438 82.0803 10.9227 82.0803 11.6673C82.0803 11.8738 82.068 12.0835 82.043 12.2962C82.0182 12.5027 81.9809 12.7186 81.9313 12.9438H75.9117C75.9988 13.5258 76.1788 13.9982 76.4522 14.3612C76.7317 14.7178 77.0704 14.9806 77.4679 15.1496C77.8716 15.3185 78.3034 15.403 78.7632 15.403C79.3036 15.403 79.8067 15.3342 80.2726 15.1965C80.7386 15.0526 81.1671 14.8649 81.5584 14.6334L81.6703 16.6044C81.3163 16.7922 80.8753 16.958 80.3471 17.1019C79.8192 17.2458 79.2228 17.3178 78.5582 17.3178ZM75.9678 11.367H79.7321C79.7321 11.0854 79.6793 10.8038 79.5737 10.5222C79.4681 10.2344 79.2911 9.99349 79.0426 9.79952C78.8003 9.60552 78.4711 9.50853 78.0549 9.50853C77.4586 9.50853 76.9896 9.68374 76.6479 10.0342C76.3062 10.3846 76.0795 10.8288 75.9678 11.367Z" fill="#50565D"/>
<path d="M86.0416 17.3138C85.4889 17.3138 85.0353 17.2043 84.6812 16.9853C84.3332 16.76 84.0757 16.4628 83.9077 16.0936C83.74 15.7182 83.6562 15.3052 83.6562 14.8546V3.04688H85.9672V13.8972C85.9672 14.3978 85.995 14.7545 86.0511 14.9673C86.1131 15.1738 86.2248 15.2989 86.3865 15.3427C86.5479 15.3803 86.781 15.399 87.0854 15.399L86.8803 17.3138H86.0416Z" fill="#50565D"/>
<path d="M92.2302 17.3138C91.2852 17.3138 90.4902 17.0917 89.8442 16.6474C89.2042 16.2031 88.7202 15.6118 88.3905 14.8734C88.0676 14.135 87.9062 13.3278 87.9062 12.4518C87.9062 11.5758 88.0676 10.7685 88.3905 10.0302C88.7202 9.29179 89.2042 8.70048 89.8442 8.25619C90.4902 7.81193 91.2852 7.58977 92.2302 7.58977C92.9132 7.58977 93.4912 7.70554 93.9632 7.93705C94.4352 8.16234 94.8513 8.45331 95.2113 8.80999L94.6523 9.29807V3.04688H96.9632V17.1261H94.7832L94.6712 15.5304L95.3422 16.0185C94.9072 16.419 94.4562 16.735 93.9902 16.9665C93.5252 17.198 92.9382 17.3138 92.2302 17.3138ZM92.5652 15.399C93.0742 15.399 93.4912 15.2739 93.8132 15.0236C94.1372 14.7733 94.3762 14.4291 94.5312 13.9911C94.6863 13.5468 94.7643 13.0337 94.7643 12.4518C94.7643 11.8698 94.6863 11.3599 94.5312 10.9218C94.3762 10.4776 94.1372 10.1303 93.8132 9.88C93.4912 9.62971 93.0742 9.50455 92.5652 9.50455C92.0802 9.50455 91.6672 9.62971 91.3262 9.88C90.9842 10.1303 90.7233 10.4776 90.5433 10.9218C90.3633 11.3599 90.2732 11.8698 90.2732 12.4518C90.2732 13.0337 90.3633 13.5468 90.5433 13.9911C90.7233 14.4291 90.9842 14.7733 91.3262 15.0236C91.6672 15.2739 92.0802 15.399 92.5652 15.399Z" fill="#50565D"/>
<path d="M-1.10156 10.8711C3.70154 10.8711 7.59524 10.8711 7.59524 10.8711C7.59524 15.7094 3.70154 19.6316 -1.10156 19.6316C-1.10156 19.6316 -1.10156 14.6256 -1.10156 10.8711Z" fill="#50565D"/>
<path d="M7.59524 9.61979C2.79214 9.61979 -1.10156 9.61979 -1.10156 9.61979C-1.10156 4.78154 2.79214 0.859375 7.59524 0.859375C7.59524 0.859375 7.59524 5.86532 7.59524 9.61979Z" fill="#50565D"/>
</g>
<defs>
<clipPath id="clip0_3002_3048">
<rect width="109" height="22" fill="white" transform="translate(-11.5391 0.359375)"/>
</clipPath>
</defs>
</svg>
