<svg width="176" height="44" viewBox="0 0 176 44" fill="none" xmlns="http://www.w3.org/2000/svg">
<path d="M30.3745 12.3122C31.3538 11.9928 32.2774 12.9286 31.9453 13.9036L23.2893 39.3156C22.8917 40.4829 21.2232 40.4304 20.8998 39.2405L17.751 27.6568C17.6376 27.2395 17.3165 26.9105 16.9021 26.7868L4.59552 23.1153C3.42098 22.7649 3.40002 21.1091 4.56532 20.729L30.3745 12.3122Z" fill="url(#paint0_radial_1548_591)"/>
<path d="M44.8336 13.3705H49.6736L56.6036 36.4705H52.3576L51.3456 33.0605V33.0825H43.1836V33.0605L42.1716 36.4705H37.9036L44.8336 13.3705ZM43.7116 31.3005L50.2456 29.4525L47.2536 19.4865L43.7116 31.3005ZM57.9262 36.4705V14.7125H61.9962V36.4705H57.9262ZM73.0656 38.2745C73.1976 38.1205 73.3296 37.9665 73.4396 37.8125H77.8396C77.3116 39.9025 75.8596 41.6405 73.9456 42.5645C73.0216 43.0045 71.9876 43.2465 70.8876 43.2465C69.8096 43.2465 68.7536 43.0045 67.8296 42.5645C65.9156 41.6405 64.4856 39.9025 63.9576 37.8125H68.3576C68.9076 38.6265 69.8316 39.1765 70.8876 39.1765C71.7456 39.1765 72.5156 38.8245 73.0656 38.2745ZM69.8756 21.5765C70.2056 21.5105 70.5576 21.4885 70.8876 21.4885H78.0376V25.5805H73.9456V26.2625C75.3756 26.2625 77.9496 26.7465 78.0376 29.4965C77.9936 30.9705 77.5096 32.3345 76.7176 33.4565C76.0136 34.4465 75.0676 35.2385 73.9456 35.7665C73.0216 36.2065 71.9876 36.4485 70.8876 36.4485C69.8096 36.4485 68.7536 36.2065 67.8296 35.7665C67.6316 35.6785 67.4556 35.5685 67.2576 35.4585C65.1676 34.2265 63.7596 31.9385 63.7596 29.3205V28.6385C63.7596 25.7785 65.4316 23.3365 67.8296 22.1925C68.4676 21.8845 69.1496 21.6645 69.8756 21.5765ZM73.9456 28.6385C73.9456 27.7805 73.6156 27.0325 73.0656 26.4605C72.5156 25.9105 71.7456 25.5805 70.8876 25.5805C69.2156 25.5805 67.8296 26.9445 67.8296 28.6385V29.3205C67.8296 29.9805 68.0496 30.5965 68.4236 31.1025C68.9736 31.8725 69.8756 32.3785 70.8876 32.3785C71.7456 32.3785 72.5156 32.0265 73.0656 31.4765C73.6156 30.9265 73.9456 30.1565 73.9456 29.3205V28.6385ZM89.973 22.2145C92.393 23.3585 94.065 25.8005 94.065 28.6605V29.3425C94.065 32.1805 92.393 34.6445 89.973 35.7885C89.049 36.2285 88.015 36.4705 86.915 36.4705C85.837 36.4705 84.781 36.2285 83.857 35.7885C81.459 34.6445 79.787 32.1805 79.787 29.3425V28.6605C79.787 25.8005 81.459 23.3585 83.857 22.2145C84.781 21.7745 85.837 21.5105 86.915 21.5105C88.015 21.5105 89.049 21.7745 89.973 22.2145ZM89.973 29.3425V28.6605C89.973 27.8025 89.643 27.0545 89.093 26.4825C88.543 25.9325 87.773 25.6025 86.915 25.6025C85.243 25.6025 83.857 26.9665 83.857 28.6605V29.3425C83.857 31.0145 85.243 32.4005 86.915 32.4005C87.773 32.4005 88.543 32.0485 89.093 31.4985C89.643 30.9485 89.973 30.1785 89.973 29.3425ZM102.623 21.5325C102.733 21.5105 102.843 21.5105 102.953 21.5105H106.011V25.6025H102.953C102.843 25.6025 102.733 25.6025 102.623 25.6245C101.083 25.7785 99.8946 27.0765 99.8946 28.6605V36.4705H95.8246V28.6605C95.8246 27.5605 96.0666 26.5265 96.5066 25.6025C97.6066 23.2925 99.9166 21.6425 102.623 21.5325ZM117.086 22.2145C119.506 23.3585 121.178 25.8005 121.178 28.6605V29.3425C121.178 32.1805 119.506 34.6445 117.086 35.7885C116.162 36.2285 115.128 36.4705 114.028 36.4705C112.95 36.4705 111.894 36.2285 110.97 35.7885C108.572 34.6445 106.9 32.1805 106.9 29.3425V28.6605C106.9 25.8005 108.572 23.3585 110.97 22.2145C111.894 21.7745 112.95 21.5105 114.028 21.5105C115.128 21.5105 116.162 21.7745 117.086 22.2145ZM117.086 29.3425V28.6605C117.086 27.8025 116.756 27.0545 116.206 26.4825C115.656 25.9325 114.886 25.6025 114.028 25.6025C112.356 25.6025 110.97 26.9665 110.97 28.6605V29.3425C110.97 31.0145 112.356 32.4005 114.028 32.4005C114.886 32.4005 115.656 32.0485 116.206 31.4985C116.756 30.9485 117.086 30.1785 117.086 29.3425ZM132.684 22.2145C135.104 23.3585 136.776 25.8005 136.776 28.6605V29.3425C136.776 32.1805 135.104 34.6445 132.684 35.7885C131.76 36.2285 130.726 36.4705 129.626 36.4705C128.548 36.4705 127.492 36.2285 126.568 35.7885C124.17 34.6445 122.498 32.1805 122.498 29.3425V28.6605C122.498 25.8005 124.17 23.3585 126.568 22.2145C127.492 21.7745 128.548 21.5105 129.626 21.5105C130.726 21.5105 131.76 21.7745 132.684 22.2145ZM132.684 29.3425V28.6605C132.684 27.8025 132.354 27.0545 131.804 26.4825C131.254 25.9325 130.484 25.6025 129.626 25.6025C127.954 25.6025 126.568 26.9665 126.568 28.6605V29.3425C126.568 31.0145 127.954 32.4005 129.626 32.4005C130.484 32.4005 131.254 32.0485 131.804 31.4985C132.354 30.9485 132.684 30.1785 132.684 29.3425ZM154.706 21.5105C158.094 21.5105 158.93 24.2605 158.93 27.6265V36.4705H154.838V28.6605C154.838 26.9665 154.97 25.6025 153.694 25.6025C152.858 25.6025 151.67 26.4165 150.768 27.5605V36.4705H146.698V28.6605V27.5825C146.676 26.4165 146.522 25.6025 145.532 25.6025C144.696 25.6025 143.508 26.4165 142.606 27.5605V36.4705H138.536V21.5105H142.606V22.8745V23.5565V25.6025H143.288C143.288 23.6665 143.53 21.5105 146.698 21.5105C148.546 21.5105 149.602 22.4565 150.174 23.8205C150.218 23.9085 150.24 23.9745 150.284 24.0845C150.526 23.8205 150.856 23.4685 150.878 23.4465C152.132 22.1705 153.738 21.5105 154.706 21.5105ZM173.567 30.0025V30.0245C174.095 30.8825 174.183 31.8945 173.853 32.8845C173.523 33.8965 172.797 34.7325 171.829 35.2825C170.487 36.0525 168.705 36.4705 166.791 36.4705C166.747 36.4705 166.703 36.4705 166.637 36.4705C164.723 36.4485 162.897 36.0305 161.467 35.2825L161.247 35.1725V31.7845L161.775 31.8725C161.951 31.8945 162.281 31.9825 162.897 32.1585C164.085 32.4885 166.065 33.0385 166.923 33.0385C168.617 33.0385 169.563 32.8185 169.871 32.3785C170.025 32.1585 170.025 31.7405 169.893 31.6085C169.475 31.1905 168.265 30.8825 167.275 30.6405C166.747 30.5085 166.263 30.3985 165.889 30.2665C164.811 29.9365 163.909 29.5405 163.161 29.0345C162.347 28.5065 161.775 27.8905 161.445 27.2085C160.961 26.2185 161.049 25.1185 161.687 23.9745V23.9525H161.709C162.589 22.6325 164.327 21.7745 166.549 21.5765C168.529 21.3785 170.663 21.7305 172.269 22.4785L172.511 22.5885V26.2185L171.917 26.0205C171.851 26.0205 171.763 25.9765 171.631 25.9325C169.563 25.2505 168.221 24.8985 167.671 24.8985C167.187 24.8985 165.713 24.8985 165.405 25.3825C165.141 25.8885 165.669 26.2405 165.999 26.3945C166.681 26.7245 167.605 26.9885 168.573 27.2745C169.981 27.6485 171.433 28.0665 172.379 28.7705C172.863 29.1225 173.259 29.5405 173.567 30.0025Z" fill="#0A0B10"/>
<defs>
<radialGradient id="paint0_radial_1548_591" cx="0" cy="0" r="1" gradientUnits="userSpaceOnUse" gradientTransform="translate(22.3661 21.9223) rotate(45) scale(29.848 22.0305)">
<stop offset="0.374455" stop-color="#1B44FE"/>
<stop offset="0.834143" stop-color="#5375FE"/>
</radialGradient>
</defs>
</svg>
