<svg width="163" height="38" viewBox="0 0 163 38" fill="none" xmlns="http://www.w3.org/2000/svg">
<path d="M23.6929 9.98608C24.4764 9.73058 25.2153 10.4792 24.9496 11.2592L18.0248 31.5888C17.7067 32.5226 16.3719 32.4806 16.1132 31.5287L13.5941 22.2617C13.5034 21.9279 13.2466 21.6647 12.9151 21.5658L3.06977 18.6285C2.13014 18.3482 2.11337 17.0236 3.04561 16.7196L23.6929 9.98608Z" fill="url(#paint0_radial_1464_1126)"/>
<path d="M31.8336 8.11264H36.6736L43.6036 31.2126H39.3576L38.3456 27.8026V27.8246H30.1836V27.8026L29.1716 31.2126H24.9036L31.8336 8.11264ZM30.7116 26.0426L37.2456 24.1946L34.2536 14.2286L30.7116 26.0426ZM44.9262 31.2126V9.45465H48.9962V31.2126H44.9262ZM60.0656 33.0166C60.1976 32.8626 60.3296 32.7086 60.4396 32.5546H64.8396C64.3116 34.6446 62.8596 36.3826 60.9456 37.3066C60.0216 37.7466 58.9876 37.9886 57.8876 37.9886C56.8096 37.9886 55.7536 37.7466 54.8296 37.3066C52.9156 36.3826 51.4856 34.6446 50.9576 32.5546H55.3576C55.9076 33.3686 56.8316 33.9186 57.8876 33.9186C58.7456 33.9186 59.5156 33.5666 60.0656 33.0166ZM56.8756 16.3186C57.2056 16.2526 57.5576 16.2306 57.8876 16.2306H65.0376V20.3226H60.9456V21.0046C62.3756 21.0046 64.9496 21.4886 65.0376 24.2386C64.9936 25.7126 64.5096 27.0766 63.7176 28.1986C63.0136 29.1886 62.0676 29.9806 60.9456 30.5086C60.0216 30.9486 58.9876 31.1906 57.8876 31.1906C56.8096 31.1906 55.7536 30.9486 54.8296 30.5086C54.6316 30.4206 54.4556 30.3106 54.2576 30.2006C52.1676 28.9686 50.7596 26.6806 50.7596 24.0626V23.3806C50.7596 20.5206 52.4316 18.0786 54.8296 16.9346C55.4676 16.6266 56.1496 16.4066 56.8756 16.3186ZM60.9456 23.3806C60.9456 22.5226 60.6156 21.7746 60.0656 21.2026C59.5156 20.6526 58.7456 20.3226 57.8876 20.3226C56.2156 20.3226 54.8296 21.6866 54.8296 23.3806V24.0626C54.8296 24.7226 55.0496 25.3386 55.4236 25.8446C55.9736 26.6146 56.8756 27.1206 57.8876 27.1206C58.7456 27.1206 59.5156 26.7686 60.0656 26.2186C60.6156 25.6686 60.9456 24.8986 60.9456 24.0626V23.3806ZM76.973 16.9566C79.393 18.1006 81.065 20.5426 81.065 23.4026V24.0846C81.065 26.9226 79.393 29.3866 76.973 30.5306C76.049 30.9706 75.015 31.2126 73.915 31.2126C72.837 31.2126 71.781 30.9706 70.857 30.5306C68.459 29.3866 66.787 26.9226 66.787 24.0846V23.4026C66.787 20.5426 68.459 18.1006 70.857 16.9566C71.781 16.5166 72.837 16.2526 73.915 16.2526C75.015 16.2526 76.049 16.5166 76.973 16.9566ZM76.973 24.0846V23.4026C76.973 22.5446 76.643 21.7966 76.093 21.2246C75.543 20.6746 74.773 20.3446 73.915 20.3446C72.243 20.3446 70.857 21.7086 70.857 23.4026V24.0846C70.857 25.7566 72.243 27.1426 73.915 27.1426C74.773 27.1426 75.543 26.7906 76.093 26.2406C76.643 25.6906 76.973 24.9206 76.973 24.0846ZM89.6226 16.2746C89.7326 16.2526 89.8426 16.2526 89.9526 16.2526H93.0106V20.3446H89.9526C89.8426 20.3446 89.7326 20.3446 89.6226 20.3666C88.0826 20.5206 86.8946 21.8186 86.8946 23.4026V31.2126H82.8246V23.4026C82.8246 22.3026 83.0666 21.2686 83.5066 20.3446C84.6066 18.0346 86.9166 16.3846 89.6226 16.2746ZM104.086 16.9566C106.506 18.1006 108.178 20.5426 108.178 23.4026V24.0846C108.178 26.9226 106.506 29.3866 104.086 30.5306C103.162 30.9706 102.128 31.2126 101.028 31.2126C99.9502 31.2126 98.8942 30.9706 97.9702 30.5306C95.5722 29.3866 93.9002 26.9226 93.9002 24.0846V23.4026C93.9002 20.5426 95.5722 18.1006 97.9702 16.9566C98.8942 16.5166 99.9502 16.2526 101.028 16.2526C102.128 16.2526 103.162 16.5166 104.086 16.9566ZM104.086 24.0846V23.4026C104.086 22.5446 103.756 21.7966 103.206 21.2246C102.656 20.6746 101.886 20.3446 101.028 20.3446C99.3562 20.3446 97.9702 21.7086 97.9702 23.4026V24.0846C97.9702 25.7566 99.3562 27.1426 101.028 27.1426C101.886 27.1426 102.656 26.7906 103.206 26.2406C103.756 25.6906 104.086 24.9206 104.086 24.0846ZM119.684 16.9566C122.104 18.1006 123.776 20.5426 123.776 23.4026V24.0846C123.776 26.9226 122.104 29.3866 119.684 30.5306C118.76 30.9706 117.726 31.2126 116.626 31.2126C115.548 31.2126 114.492 30.9706 113.568 30.5306C111.17 29.3866 109.498 26.9226 109.498 24.0846V23.4026C109.498 20.5426 111.17 18.1006 113.568 16.9566C114.492 16.5166 115.548 16.2526 116.626 16.2526C117.726 16.2526 118.76 16.5166 119.684 16.9566ZM119.684 24.0846V23.4026C119.684 22.5446 119.354 21.7966 118.804 21.2246C118.254 20.6746 117.484 20.3446 116.626 20.3446C114.954 20.3446 113.568 21.7086 113.568 23.4026V24.0846C113.568 25.7566 114.954 27.1426 116.626 27.1426C117.484 27.1426 118.254 26.7906 118.804 26.2406C119.354 25.6906 119.684 24.9206 119.684 24.0846ZM141.706 16.2526C145.094 16.2526 145.93 19.0026 145.93 22.3686V31.2126H141.838V23.4026C141.838 21.7086 141.97 20.3446 140.694 20.3446C139.858 20.3446 138.67 21.1586 137.768 22.3026V31.2126H133.698V23.4026V22.3246C133.676 21.1586 133.522 20.3446 132.532 20.3446C131.696 20.3446 130.508 21.1586 129.606 22.3026V31.2126H125.536V16.2526H129.606V17.6166V18.2986V20.3446H130.288C130.288 18.4086 130.53 16.2526 133.698 16.2526C135.546 16.2526 136.602 17.1986 137.174 18.5626C137.218 18.6506 137.24 18.7166 137.284 18.8266C137.526 18.5626 137.856 18.2106 137.878 18.1886C139.132 16.9126 140.738 16.2526 141.706 16.2526ZM160.567 24.7446V24.7666C161.095 25.6246 161.183 26.6366 160.853 27.6266C160.523 28.6386 159.797 29.4746 158.829 30.0246C157.487 30.7946 155.705 31.2126 153.791 31.2126C153.747 31.2126 153.703 31.2126 153.637 31.2126C151.723 31.1906 149.897 30.7726 148.467 30.0246L148.247 29.9146V26.5266L148.775 26.6146C148.951 26.6366 149.281 26.7246 149.897 26.9006C151.085 27.2306 153.065 27.7806 153.923 27.7806C155.617 27.7806 156.563 27.5606 156.871 27.1206C157.025 26.9006 157.025 26.4826 156.893 26.3506C156.475 25.9326 155.265 25.6246 154.275 25.3826C153.747 25.2506 153.263 25.1406 152.889 25.0086C151.811 24.6786 150.909 24.2826 150.161 23.7766C149.347 23.2486 148.775 22.6326 148.445 21.9506C147.961 20.9606 148.049 19.8606 148.687 18.7166V18.6946H148.709C149.589 17.3746 151.327 16.5166 153.549 16.3186C155.529 16.1206 157.663 16.4726 159.269 17.2206L159.511 17.3306V20.9606L158.917 20.7626C158.851 20.7626 158.763 20.7186 158.631 20.6746C156.563 19.9926 155.221 19.6406 154.671 19.6406C154.187 19.6406 152.713 19.6406 152.405 20.1246C152.141 20.6306 152.669 20.9826 152.999 21.1366C153.681 21.4666 154.605 21.7306 155.573 22.0166C156.981 22.3906 158.433 22.8086 159.379 23.5126C159.863 23.8646 160.259 24.2826 160.567 24.7446Z" fill="#0A0B10"/>
<defs>
<radialGradient id="paint0_radial_1464_1126" cx="0" cy="0" r="1" gradientUnits="userSpaceOnUse" gradientTransform="translate(17.2862 17.6742) rotate(45) scale(23.8784 17.6244)">
<stop offset="0.374455" stop-color="#1B44FE"/>
<stop offset="0.834143" stop-color="#5375FE"/>
</radialGradient>
</defs>
</svg>
